<svg width="57" height="57" viewBox="0 0 57 57" fill="none" xmlns="http://www.w3.org/2000/svg">
<path d="M28.8505 25.5498C28.8089 25.4965 28.7556 25.4535 28.6949 25.4239C28.6341 25.3943 28.5674 25.3789 28.4998 25.3789C28.4323 25.3789 28.3656 25.3943 28.3048 25.4239C28.244 25.4535 28.1908 25.4965 28.1492 25.5498L21.9148 33.4374C21.8634 33.503 21.8315 33.5818 21.8228 33.6647C21.814 33.7476 21.8288 33.8313 21.8654 33.9062C21.902 33.9811 21.9589 34.0442 22.0296 34.0882C22.1004 34.1323 22.1821 34.1556 22.2655 34.1554H26.379V47.6484C26.379 47.8933 26.5794 48.0937 26.8244 48.0937H30.1642C30.4091 48.0937 30.6095 47.8933 30.6095 47.6484V34.161H34.7342C35.1072 34.161 35.3131 33.7324 35.0849 33.4429L28.8505 25.5498Z" fill="#A9A9A9"/>
<path d="M45.1658 20.412C42.6164 13.6878 36.1204 8.90625 28.5111 8.90625C20.9019 8.90625 14.4059 13.6822 11.8564 20.4064C7.08604 21.6589 3.5625 26.0063 3.5625 31.1719C3.5625 37.3228 8.54443 42.3047 14.6897 42.3047H16.9219C17.1668 42.3047 17.3672 42.1043 17.3672 41.8594V38.5195C17.3672 38.2746 17.1668 38.0742 16.9219 38.0742H14.6897C12.8139 38.0742 11.0493 37.3283 9.73564 35.9757C8.42754 34.6286 7.73174 32.814 7.79297 30.9325C7.84307 29.463 8.34404 28.0825 9.25137 26.9191C10.181 25.7335 11.4835 24.8707 12.9308 24.4866L15.0404 23.9355L15.8142 21.8982C16.2929 20.6291 16.9608 19.4435 17.8014 18.3691C18.6312 17.3043 19.6141 16.3683 20.7182 15.5915C23.006 13.9828 25.7001 13.1312 28.5111 13.1312C31.3222 13.1312 34.0163 13.9828 36.3041 15.5915C37.4118 16.3708 38.3915 17.306 39.2209 18.3691C40.0614 19.4435 40.7294 20.6347 41.2081 21.8982L41.9763 23.93L44.0804 24.4866C47.0974 25.2993 49.207 28.0436 49.207 31.1719C49.207 33.0144 48.489 34.7511 47.1864 36.0536C46.5476 36.6961 45.7878 37.2056 44.9508 37.5524C44.1138 37.8992 43.2163 38.0766 42.3103 38.0742H40.0781C39.8332 38.0742 39.6328 38.2746 39.6328 38.5195V41.8594C39.6328 42.1043 39.8332 42.3047 40.0781 42.3047H42.3103C48.4556 42.3047 53.4375 37.3228 53.4375 31.1719C53.4375 26.0118 49.9251 21.67 45.1658 20.412Z" fill="#A9A9A9"/>
</svg>
