<svg width="46" height="46" viewBox="0 0 46 46" fill="none" xmlns="http://www.w3.org/2000/svg">
<path d="M40.25 26.8333V36.4167C40.25 37.4333 39.8461 38.4084 39.1272 39.1272C38.4084 39.8461 37.4333 40.25 36.4167 40.25H9.58333C8.56667 40.25 7.59165 39.8461 6.87276 39.1272C6.15387 38.4084 5.75 37.4333 5.75 36.4167V9.58333C5.75 8.56667 6.15387 7.59165 6.87276 6.87276C7.59165 6.15387 8.56667 5.75 9.58333 5.75H19.1667V9.58333H9.58333V36.4167H36.4167V26.8333H40.25Z" fill="black"/>
<path d="M40.2507 13.4167H32.584V5.75H28.7507V13.4167H21.084V17.25H28.7507V24.9167H32.584V17.25H40.2507V13.4167Z" fill="black"/>
</svg>
