<svg width="28" height="29" viewBox="0 0 28 29" fill="none" xmlns="http://www.w3.org/2000/svg">
<ellipse cx="13.6077" cy="5.04154" rx="13.6077" ry="5.04154" fill="#05204A"/>
<ellipse cx="13.6077" cy="23.9585" rx="13.6077" ry="5.04154" fill="#05204A"/>
<rect y="4.90771" width="27.2154" height="19.0954" fill="#05204A"/>
<path fill-rule="evenodd" clip-rule="evenodd" d="M0 13.2892C2.58952 14.887 7.73175 15.9756 13.6525 15.9756C19.5058 15.9756 24.5983 14.9116 27.2156 13.3436V9.17301C25.3954 11.0531 20.0113 12.416 13.6525 12.416C7.18596 12.416 1.72737 11.0065 0 9.0769V13.2892Z" fill="#B497D6"/>
<path fill-rule="evenodd" clip-rule="evenodd" d="M0 21.32C2.58952 22.9177 7.73175 24.0063 13.6525 24.0063C19.5058 24.0063 24.5983 22.9424 27.2156 21.3743V17.2038C25.3954 19.0839 20.0113 20.4468 13.6525 20.4468C7.18596 20.4468 1.72737 19.0373 0 17.1077V21.32Z" fill="#B497D6"/>
</svg>
