<svg width="18" height="18" viewBox="0 0 18 18" fill="none" xmlns="http://www.w3.org/2000/svg">
<path d="M10 0H8V10H10V0ZM14.83 2.17L13.41 3.59C14.2199 4.23968 14.8733 5.0633 15.3216 5.9998C15.77 6.93631 16.0018 7.9617 16 9C16 12.87 12.87 16 9 16C7.55522 16.0009 6.14562 15.5543 4.96486 14.7218C3.78409 13.8892 2.89009 12.7114 2.40569 11.3503C1.92129 9.98913 1.87024 8.51137 2.25957 7.12004C2.6489 5.72871 3.4595 4.49206 4.58 3.58L3.17 2.17C2.17622 3.00901 1.37765 4.05492 0.830111 5.23463C0.28257 6.41435 -0.00073333 7.69941 1.42556e-06 9C1.46112e-06 11.3869 0.948213 13.6761 2.63604 15.364C4.32387 17.0518 6.61305 18 9 18C11.3869 18 13.6761 17.0518 15.364 15.364C17.0518 13.6761 18 11.3869 18 9C18 6.26 16.77 3.82 14.83 2.17Z" fill="black"/>
</svg>
