<svg width="22" height="22" viewBox="0 0 22 22" fill="none" xmlns="http://www.w3.org/2000/svg">
<path d="M10.9998 1.83325C8.47259 1.83325 6.4165 3.88934 6.4165 6.41659V9.16659H5.49984C4.48875 9.16659 3.6665 9.98884 3.6665 10.9999V18.3333C3.6665 19.3443 4.48875 20.1666 5.49984 20.1666H16.4998C17.5109 20.1666 18.3332 19.3443 18.3332 18.3333V10.9999C18.3332 9.98884 17.5109 9.16659 16.4998 9.16659H15.5832V6.41659C15.5832 3.88934 13.5271 1.83325 10.9998 1.83325ZM16.4998 10.9999L16.5017 18.3333H5.49984V10.9999H16.4998ZM8.24984 9.16659V6.41659C8.24984 4.90042 9.48367 3.66659 10.9998 3.66659C12.516 3.66659 13.7498 4.90042 13.7498 6.41659V9.16659H8.24984Z" fill="#949494"/>
</svg>
